<?xml version="1.0" encoding="utf-8"?>
<!-- Generator: Adobe Illustrator 24.0.1, SVG Export Plug-In . SVG Version: 6.00 Build 0)  -->
<svg version="1.1" id="Layer_1" xmlns="http://www.w3.org/2000/svg" xmlns:xlink="http://www.w3.org/1999/xlink" x="0px" y="0px"
	 viewBox="0 0 201.4 78.6" style="enable-background:new 0 0 201.4 78.6;" xml:space="preserve">
<style type="text/css">
	.st0{fill:none;}
	.st1{fill:#FBCF00;}
	.st2{fill:#00AE42;}
	.st3{fill:#FEFEFE;}
	.st4{fill:#F9FCFA;}
	.st5{fill:#30BE66;}
	.st6{fill:#38C06C;}
	.st7{fill:#8BDAA9;}
	.st8{fill:#FDFEFD;}
	.st9{fill:#01AF42;}
	.st10{fill:#04B045;}
	.st11{fill:#F9FDFB;}
	.st12{fill:#20B859;}
	.st13{enable-background:new    ;}
	.st14{fill:#FFFFFF;}
</style>
<title>animals</title>
<g>
	<g>
		<path class="st0" d="M0,78.5C0,52.6,0,26.7,0,0.8C0,0.1,0.2,0,0.8,0C67.4,0,134,0,200.7,0c0.6,0,0.8,0.1,0.8,0.8
			c0,25.7,0,51.3,0,77c0,0.6-0.1,0.8-0.8,0.8L0,78.5z"/>
		<path class="st1" d="M100.7,78.2H10.3c-3.9,0.2-7.6-2-9.2-5.6c-0.6-1.2-0.9-2.4-0.9-3.7c0-11.5,0-23,0-34.5
			c0.1-5.1,4.2-9.2,9.3-9.3c10.2-0.1,20.3,0,30.5,0s20.4,0,30.6,0c0.9,0,1.2-0.2,1.3-1.1C75,8.1,90.2-2.3,106.1,0.7
			c9.3,1.7,17.2,7.9,21.1,16.5c1.1,2.2,1.8,4.6,2.2,7.1c0.1,0.7,0.3,0.9,1,0.9c20.2,0,40.5,0,60.7,0c3.9-0.2,7.5,2,9.2,5.6
			c0.6,1.2,0.9,2.5,0.9,3.9c0,11.4,0,22.8,0,34.1c0,5.2-4.2,9.4-9.4,9.5c-6.7,0.1-13.5,0-20.2,0H100.7z"/>
		<path class="st2" d="M100.6,31.1c30,0,60,0,90,0c2.1-0.1,4,1.3,4.5,3.3c0.1,0.4,0.1,0.8,0.1,1.2v32.1c0.2,2.2-1.5,4.2-3.7,4.4
			c-0.2,0-0.4,0-0.7,0H11c-1.1,0.1-2.2-0.2-3.2-0.9c-1-0.7-1.6-1.9-1.6-3.2c0-11,0-22,0-33c0-2.2,1.7-4,3.9-4.1c0,0,0,0,0.1,0
			c0.3,0,0.6,0,0.9,0L100.6,31.1z"/>
		<path class="st2" d="M100.7,25.1H81.3c-1.9,0-2.5-0.8-2-2.6c1.7-6.6,5.9-11.2,12-14.1c11.2-5.2,24.5-0.5,29.7,10.7
			c0.1,0.2,0.1,0.3,0.2,0.5c0.4,1,0.8,2,1,3.1c0.4,1.7-0.2,2.5-1.9,2.5C113.7,25.1,107.2,25.1,100.7,25.1z"/>
		<path class="st3" d="M73.4,53.8c0,3.7,0,7.4,0,11.1c0,0.7-0.2,0.9-0.8,0.8c-0.8-0.1-1.7-0.1-2.5,0c-0.6,0-0.7-0.1-0.7-0.7
			c0-2.6,0-5.2,0-7.9c0-6.2,0-12.4,0-18.6c0-0.6,0.1-0.9,0.8-0.8c1,0.1,2.1,0,3.1,0c0.3,0,0.5,0,0.6,0.4c1,5,2.3,9.9,3.1,15
			c0.1,0.3,0.1,0.6,0.3,0.9c0,0.1,0.1-0.1,0,0s-0.1,0-0.1,0c-0.1-0.1-0.1-0.3,0-0.4c0.4-3.3,1.2-6.4,1.9-9.7
			c0.4-1.9,0.9-3.7,1.2-5.5c0.1-0.4,0.2-0.5,0.7-0.5c1.1,0,2.2,0,3.3,0c0.5,0,0.6,0.1,0.6,0.6c0,1.4,0,2.7,0,4.1
			c0,7.5,0,14.9,0,22.4c0,0.7-0.2,0.9-0.9,0.9c-0.8-0.1-1.6-0.1-2.4,0c-0.6,0-0.7-0.2-0.7-0.7c0-4.2,0-8.3,0.1-12.5
			c0.1-0.8,0.1-1.6,0-2.4c-0.1,0.1-0.1,0.3-0.2,0.4C79.7,55.8,78.3,61,77,66.2c-1.3-5.2-2.6-10.4-3.6-15.6c-0.2-0.1-0.2,0.1-0.2,0.2
			C73.3,51.8,73.3,52.8,73.4,53.8z"/>
		<path class="st3" d="M135.6,51.7c0-4.4,0-8.8,0-13.2c0-0.6,0.1-0.8,0.8-0.8c1.7,0.1,3.5,0,5.2,0c2.8-0.2,5.3,1.8,5.8,4.5
			c0.6,2.2,0.5,4.5-0.1,6.7c-0.3,1.1-0.8,2.1-1.7,2.9c-0.2,0.2-0.3,0.6-0.2,0.9c0.8,4.1,1.6,8.1,2.5,12.2c0.1,0.7,0,0.9-0.7,0.8
			c-1-0.1-2.1,0-3.1,0c-0.5,0-0.6-0.1-0.7-0.6c-0.7-3.7-1.4-7.3-2.1-11c-0.1-0.5-0.3-0.7-0.8-0.7s-0.5,0.5-0.5,0.8
			c0,3.6,0,7.2,0,10.8c0,0.6-0.1,0.8-0.7,0.8c-1-0.1-2-0.1-3,0c-0.6,0-0.8-0.1-0.8-0.7C135.6,60.5,135.6,56.1,135.6,51.7z"/>
		<path class="st3" d="M64.7,65.7c-0.6-0.1-1.5,0.3-2-0.1s-0.3-1.3-0.4-2c-0.2-1.2-0.3-2.3-0.4-3.5c0-0.4-0.2-0.6-0.6-0.6
			c-0.7,0-1.4,0-2.2,0c-0.4,0-0.6,0.1-0.6,0.6c-0.2,1.7-0.4,3.4-0.6,5.1c-0.1,0.5-0.2,0.6-0.7,0.6c-1,0-2.1-0.1-3.1,0
			c-0.6,0-0.7-0.2-0.6-0.7c0.5-3,0.9-5.9,1.4-8.9c0.9-5.8,1.9-11.6,2.7-17.4c0.1-0.7,0.3-1,1.1-0.9c1.1,0.1,2.2,0,3.4,0
			c0.4,0,0.6,0.1,0.6,0.6c1.4,8.9,2.8,17.9,4.2,26.8c0.1,0.5,0,0.6-0.5,0.6S65.4,65.7,64.7,65.7z"/>
		<path class="st3" d="M116.2,59.4c0-1.9-0.7-3.7-2-5c-1-1.2-2.2-2.4-3.2-3.7c-2.2-2.6-3-6.1-2-9.4c0.6-2.4,2.8-4.1,5.2-4
			c2.4-0.2,4.7,1.3,5.4,3.6c0.3,0.9,0.5,1.8,0.7,2.7c0.1,0.4,0,0.5-0.4,0.6c-1.1,0.2-2.1,0.4-3.2,0.7c-0.5,0.1-0.6,0-0.6-0.4
			c-0.1-0.7-0.2-1.4-0.5-2c-0.1-0.7-0.8-1.1-1.4-1c-0.8,0.1-1,0.6-1.1,1.3c-0.3,1.6,0.1,3.3,1.1,4.6c0.8,1.1,1.8,2.1,2.7,3.1
			c2.5,2.4,3.8,5.8,3.8,9.3c0,0.8-0.2,1.6-0.4,2.4c-0.6,2.5-2.9,4.2-5.5,4.2c-2.5,0.2-4.8-1.5-5.5-3.9c-0.3-1-0.6-2-0.7-3.1
			c0-0.4,0.1-0.6,0.5-0.7c1.1-0.1,2.1-0.3,3.2-0.6c0.4-0.1,0.5,0.1,0.6,0.4c0.1,0.9,0.3,1.8,0.6,2.6c0.3,0.7,0.7,1.1,1.5,1.1
			s1.1-0.6,1.3-1.3C116.2,60.3,116.2,59.8,116.2,59.4z"/>
		<path class="st3" d="M47.9,59.2c0-1.5-0.5-3.1-1.5-4.3c-1.1-1.4-2.4-2.7-3.5-4.1c-2.3-2.9-3.3-6.2-2.1-9.9c1-2.9,4.1-4.5,7.1-3.5
			c1.5,0.5,2.8,1.7,3.4,3.2c0.3,0.9,0.6,1.8,0.7,2.7c0.1,0.4,0,0.6-0.5,0.7c-1.1,0.2-2.1,0.4-3.2,0.7c-0.5,0.1-0.5-0.1-0.6-0.4
			c-0.1-0.7-0.2-1.4-0.5-2c-0.1-0.6-0.7-1-1.4-1c-0.8,0-1.1,0.5-1.2,1.2c-0.4,1.6,0,3.2,0.9,4.5c0.9,1.2,1.8,2.3,2.9,3.3
			c2.7,2.6,4,6.3,3.6,10c-0.4,4.2-3.8,6.6-7.7,5.5c-1.3-0.4-2.4-1.2-3-2.4c-0.7-1.4-1.2-2.9-1.3-4.5c-0.1-0.3,0-0.5,0.4-0.6
			c1.1-0.2,2.3-0.4,3.4-0.6c0.5-0.1,0.5,0.1,0.5,0.5c0.1,0.9,0.2,1.8,0.6,2.6c0.2,0.7,0.8,1.1,1.5,1c0.7-0.1,1.3-0.6,1.3-1.3
			C47.9,60.2,47.8,59.7,47.9,59.2z"/>
		<path class="st3" d="M20.9,59.1c0-1.8-0.7-3.5-2-4.8c-1.1-1.2-2.2-2.4-3.2-3.7c-2.2-2.6-3-6.1-2-9.4c0.9-3,4-4.7,6.9-3.8
			c1.7,0.5,3.1,1.8,3.7,3.4c0.3,0.8,0.5,1.7,0.6,2.6c0.1,0.4,0,0.5-0.4,0.6c-1.1,0.2-2.1,0.4-3.2,0.7c-0.4,0.1-0.6-0.1-0.6-0.4
			c-0.1-0.7-0.2-1.4-0.5-2.1c-0.2-0.7-0.9-1.1-1.6-0.9c-0.5,0.2-0.9,0.6-0.9,1.1c-0.4,1.6,0,3.3,1,4.7c0.8,1.1,1.7,2.1,2.7,3
			c2.5,2.4,3.9,5.8,3.8,9.2c0,0.8-0.1,1.6-0.4,2.4c-0.6,2.5-2.9,4.3-5.4,4.3c-2.6,0.2-4.9-1.4-5.6-3.9c-0.4-1-0.6-2-0.7-3.1
			c0-0.4,0-0.6,0.5-0.7c1.1-0.1,2.2-0.3,3.2-0.6c0.4-0.1,0.5,0,0.6,0.4c0.1,0.9,0.3,1.8,0.6,2.7c0.2,0.7,1,1.2,1.8,0.9
			c0.5-0.2,0.9-0.6,1-1.2C20.9,60.2,21,59.7,20.9,59.1z"/>
		<path class="st3" d="M27.7,51.7c0-4.4,0-8.8,0-13.1c0-0.7,0.2-0.9,0.9-0.9c2.9,0,5.9,0,8.8,0c0.6,0,0.9,0.1,0.8,0.8
			c-0.1,0.9-0.1,1.7,0,2.6c0.1,0.7-0.2,0.8-0.9,0.8c-1.5-0.1-3,0-4.5,0c-0.5,0-0.7,0.1-0.7,0.6c0,1.9,0,3.8,0,5.7
			c0,0.6,0.2,0.7,0.7,0.7c1.1,0,2.1,0,3.2,0c0.5,0,0.8,0.1,0.7,0.7c0,1,0,1.9,0,2.8c0,0.5-0.1,0.6-0.6,0.6c-1.1,0-2.2,0-3.4,0
			c-0.5,0-0.7,0.2-0.7,0.7c0,2.4,0,4.8,0,7.2c0,0.6,0.2,0.7,0.7,0.7c1.6,0,3.3,0,4.9,0c0.6,0,0.8,0.2,0.7,0.8c0,1,0,2,0,2.9
			c0,0.4-0.1,0.5-0.5,0.5c-3.3,0-6.5,0-9.8,0c-0.7,0-0.5-0.4-0.5-0.8C27.7,60.5,27.7,56,27.7,51.7z"/>
		<path class="st3" d="M88.6,51.7c0-4.4,0-8.8,0-13.2c0-0.6,0.2-0.8,0.8-0.8c3,0,6,0,9,0c0.6,0,0.7,0.2,0.7,0.7c0,0.9,0,1.9,0,2.8
			c0,0.5-0.1,0.7-0.7,0.6c-1.6,0-3.1,0-4.7,0c-0.5,0-0.7,0-0.7,0.6c0,1.9,0,3.9,0,5.8c0,0.5,0.1,0.6,0.6,0.6c1.1,0,2.2,0,3.3,0
			c0.6,0,0.8,0.2,0.7,0.8c-0.1,0.9-0.1,1.7,0,2.6c0,0.6-0.1,0.9-0.8,0.8c-1.1-0.1-2.2,0-3.3,0c-0.4,0-0.6,0.1-0.6,0.6
			c0,2.5,0,4.9,0,7.4c0,0.5,0.2,0.6,0.6,0.6c1.7,0,3.4,0,5,0c0.6,0,0.8,0.2,0.7,0.8c0,1,0,1.9,0,2.9c0,0.4,0,0.6-0.5,0.6
			c-3.3,0-6.5,0-9.8,0c-0.7,0-0.5-0.4-0.5-0.8L88.6,51.7z"/>
		<path class="st3" d="M150.9,51.7c0-4.4,0-8.8,0-13.2c0-0.6,0.1-0.8,0.8-0.8c3,0,6,0,9.1,0c0.5,0,0.7,0.2,0.7,0.7c0,1,0,1.9,0,2.9
			c0,0.5-0.1,0.7-0.7,0.6c-1.6,0-3.1,0-4.7,0c-0.5,0-0.7,0.1-0.7,0.6c0,1.9,0,3.8,0,5.7c0,0.6,0.2,0.7,0.7,0.7c1.1,0,2.1,0,3.2,0
			c0.6,0,0.7,0.2,0.7,0.7c0,0.9,0,1.8,0,2.8c0,0.6-0.2,0.7-0.7,0.7c-1.1,0-2.2,0-3.3,0c-0.5,0-0.6,0.1-0.6,0.6c0,2.4,0,4.9,0,7.3
			c0,0.6,0.2,0.6,0.7,0.6c1.7,0,3.4,0,5,0c0.5,0,0.7,0.1,0.7,0.6c0,1,0,2,0,2.9c0,0.5-0.1,0.6-0.6,0.6c-3.2,0-6.4,0-9.6,0
			c-0.7,0-0.6-0.3-0.6-0.8C151,60.5,150.9,56.1,150.9,51.7z"/>
		<path class="st3" d="M164.7,51.7c0-4.4,0-8.8,0-13.2c0-0.6,0.2-0.8,0.8-0.8c3,0,6,0,9,0c0.5,0,0.7,0.1,0.7,0.7
			c-0.1,0.9-0.1,1.9,0,2.9c0,0.6-0.2,0.7-0.7,0.7c-1.5,0-3.1,0-4.6,0c-0.5,0-0.7,0.1-0.7,0.6c0,1.9,0,3.8,0,5.7
			c0,0.5,0.1,0.7,0.7,0.7c1.1,0,2.2,0,3.3,0c0.6,0,0.7,0.2,0.7,0.7c0,0.9,0,1.8,0,2.7c0,0.7-0.2,0.8-0.8,0.8c-1.1,0-2.1,0-3.2,0
			c-0.5,0-0.6,0.2-0.6,0.6c0,2.4,0,4.9,0,7.3c0,0.5,0.1,0.6,0.6,0.6c1.7,0,3.4,0,5,0c0.5,0,0.7,0.1,0.7,0.7c0,1,0,1.9,0,2.9
			c0,0.4-0.1,0.6-0.6,0.6c-3.2,0-6.4,0-9.6,0c-0.7,0-0.6-0.4-0.6-0.8L164.7,51.7z"/>
		<path class="st3" d="M185.1,53.8c0,3.7,0,7.4,0,11.1c0,0.6-0.1,0.8-0.7,0.8c-1-0.1-2-0.1-3,0c-0.7,0-0.8-0.2-0.8-0.8
			c0-6.9,0-13.8,0-20.8c0-0.6,0-1.2,0-1.8c0-0.4-0.1-0.5-0.5-0.5c-0.9,0-1.8,0-2.7,0c-0.4,0-0.6-0.1-0.6-0.6c0-1,0-2.1,0-3.1
			c0-0.4,0.1-0.5,0.5-0.5c3.7,0,7.3,0,11,0c0.4,0,0.5,0.1,0.5,0.5c0,1.1,0,2.1,0,3.2c0,0.4-0.1,0.5-0.5,0.5c-0.8,0-1.7,0-2.5,0
			c-0.6,0-0.8,0.1-0.8,0.7C185.1,46.3,185.1,50.1,185.1,53.8z"/>
		<path class="st3" d="M125.1,53.8c0-3.7,0-7.4,0-11.1c0-0.6-0.1-0.8-0.8-0.8c-0.8,0.1-1.7,0-2.5,0c-0.4,0-0.5-0.1-0.5-0.5
			c0-1.1,0-2.1,0-3.2c0-0.4,0.1-0.5,0.5-0.5c3.7,0,7.3,0,11,0c0.4,0,0.5,0.1,0.5,0.5c0,1,0,2.1,0,3.1c0,0.4-0.1,0.6-0.6,0.6
			c-0.7,0-1.4,0-2.1,0c-1.1,0-1.1,0-1.1,1.1c0,7.2,0,14.5,0,21.7c0,0.9-0.2,1.1-1,1c-0.9-0.1-1.7-0.1-2.6,0c-0.7,0-0.9-0.1-0.9-0.8
			C125.1,61.1,125.1,57.5,125.1,53.8z"/>
		<path class="st4" d="M188.8,68.2c-0.1-1.3,0.8-2.4,2.1-2.5c1.3-0.1,2.4,0.8,2.5,2.1c0,0.1,0,0.2,0,0.3c0.1,1.3-0.8,2.4-2.1,2.5
			c-1.3,0.1-2.4-0.8-2.5-2.1C188.8,68.3,188.8,68.2,188.8,68.2z"/>
		<path class="st5" d="M73.4,53.8c-0.1-1.1-0.2-2.2-0.1-3.3c0-0.1,0-0.3,0.2-0.3s0.1,0.2,0.1,0.4c-0.2,0.7-0.2,1.5-0.1,2.2
			C73.5,53.1,73.5,53.5,73.4,53.8z"/>
		<path class="st6" d="M80.9,50.4l0.1-0.9c0.2,1,0.2,1.9,0,2.9C80.9,51.8,81.2,51.1,80.9,50.4z"/>
		<path class="st7" d="M77.3,53.4c0.1,0.2,0,0.4-0.1,0.6c-0.2-0.2-0.3-0.6-0.2-0.9L77.3,53.4z"/>
		<path class="st3" d="M109.6,16.4c1.3,1,1.6,2.9,0.6,4.2c-0.5,0.7-1.2,1.1-2.1,1.2c-1.4,0.2-2.7-0.4-3.5-1.6
			c-0.2-0.3-0.2-0.4,0.1-0.6c0.2-0.1,0.5-0.3,0.7-0.5c0.4-0.4,0.7-0.4,1.1,0.1c0.4,0.6,1.1,0.7,1.7,0.4c0.6-0.3,0.6-0.8,0.5-1.3
			c-0.1-0.8-0.8-0.9-1.3-0.8c-1,0.1-0.7-0.6-0.8-1.1s0-1,0.8-1c0.5,0.1,0.9-0.1,1.1-0.6c0.1-0.4,0-0.8-0.3-1c-0.4-0.3-0.9-0.3-1.4,0
			c-0.3,0.1-0.4,0.6-0.7,0.4c-0.4-0.3-0.8-0.7-1.2-1.2c-0.1-0.1,0-0.2,0.1-0.3c1-1.1,2.5-1.4,3.8-0.9c1.1,0.4,1.8,1.6,1.7,2.8
			C110.5,15.3,110.1,16,109.6,16.4z"/>
		<path class="st3" d="M99.2,19.6c0.9,0,1.9,0,2.8,0c0.6,0,0.8,0.1,0.7,0.7c0,0.1,0,0.3,0,0.4c0.1,0.7-0.1,1-0.9,0.9
			c-1.4-0.1-2.9,0-4.4,0c-0.4,0-0.6-0.1-0.5-0.6c0-2,1-3.9,2.6-5c0.3-0.2,0.5-0.4,0.8-0.7c0.4-0.4,0.4-1,0.1-1.5
			c-0.4-0.5-0.9-0.3-1.4-0.1c-0.2,0.1-0.3,0.2-0.5,0.4c-0.3,0.4-0.5,0.3-0.8-0.1c-1-1.2-0.9-1.5,0.4-2.2c1.3-0.7,2.9-0.4,3.9,0.7
			c0.8,1.3,0.7,2.9-0.4,4c-0.4,0.4-0.9,0.8-1.4,1.2C99.7,18.3,99.3,18.9,99.2,19.6z"/>
		<path class="st8" d="M93.9,16.8c0,1.4,0,2.8,0,4.2c0,0.6-0.1,0.7-0.7,0.7c-1.4,0-1.4,0-1.4-1.4c0-1.6,0-3.3,0-4.9
			c0-0.5-0.1-0.9-0.7-0.8c-0.2,0-0.6,0.2-0.6-0.3s-0.3-0.9,0.4-1.1c0.4-0.1,0.8-0.2,0.9-0.6c0.2-0.9,0.9-0.7,1.5-0.7
			c0.4,0,0.6,0.2,0.6,0.6C93.9,13.9,93.9,15.3,93.9,16.8z"/>
		<path class="st2" d="M143.2,45.2c0,1-0.1,2-0.3,2.9c-0.3,1.1-1.4,1.8-2.5,1.5c-0.4,0-0.4-0.2-0.4-0.5c0-2.4,0-4.9,0-7.3
			c0-0.2,0-0.4,0.3-0.4c1.1-0.3,2.3,0.3,2.6,1.4c0,0,0,0.1,0,0.1c0.1,0.2,0.1,0.4,0.1,0.6C143.1,44.2,143.2,44.9,143.2,45.2z"/>
		<path class="st9" d="M60.1,44.9c0.3,2.8,0.6,5.3,0.9,7.8c0.1,0.7,0.2,1.4,0.3,2.1c0.1,0.4,0.1,0.6-0.5,0.6c-2,0.1-2,0.1-1.7-1.9
			C59.5,50.8,59.8,47.9,60.1,44.9z"/>
		<path class="st10" d="M191.1,70c-1,0-1.9-0.8-1.9-1.9c0,0,0,0,0-0.1c0-1.1,0.9-1.9,1.9-1.9s1.9,0.9,1.9,1.9S192.1,70,191.1,70
			C191.1,70,191.1,70,191.1,70z"/>
		<path class="st11" d="M192.1,69.2c-0.6,0.2-0.6-0.2-0.8-0.5s-0.2-0.4-0.4-0.3s-0.2,0.3-0.2,0.5s0.1,0.4-0.2,0.4s-0.3-0.3-0.3-0.5
			s0-0.6,0-0.9c0-1.1,0.3-1.4,1.4-1.1c0.4,0.1,0.7,0.4,0.6,0.8c0,0.1,0,0.2-0.1,0.3C191.8,68.6,191.8,68.6,192.1,69.2z"/>
		<path class="st12" d="M191.6,67.6c-0.1,0.4-0.4,0.4-0.6,0.4s-0.4-0.1-0.4-0.4s0.3-0.2,0.5-0.3C191.4,67.3,191.6,67.4,191.6,67.6z"
			/>
	</g>
	<rect x="12" y="36.8" class="st2" width="88.6" height="30"/>
	<g class="st13">
		<path class="st3" d="M13.1,65.3l4.5-28.1H23l4,28.1h-4.3l-0.6-5.7h-4l-0.7,5.7H13.1z M20.3,43.1l-1.6,12.4h3L20.3,43.1z"/>
		<path class="st3" d="M29.1,65.3V37.2h4.3l4.1,12.6V37.2h4.3v28.1h-3.9l-4.6-14.9v14.9H29.1z"/>
		<path class="st3" d="M44.7,65.3V37.2h4.5v28.1H44.7z"/>
		<path class="st3" d="M52,65.3V37.2h5.8l2.8,15.2l2.8-15.2h5.8v28.1H65V47.9l-3.1,17.4h-2.6l-3.1-17.4v17.4H52z"/>
		<path class="st3" d="M70.9,65.3l4.5-28.1h5.4l4,28.1h-4.3l-0.6-5.7h-4l-0.7,5.7H70.9z M78.1,43.1l-1.6,12.4h3L78.1,43.1z"/>
		<path class="st3" d="M86.8,65.3V37.2h4.6V61h5.8v4.3H86.8z"/>
	</g>
	<rect x="188.4" y="65.1" class="st2" width="5.2" height="5.6"/>
	<g>
		<path class="st14" d="M190.2,70.8c-1.4,0-2.5-1.1-2.5-2.5c0-1.4,1.1-2.5,2.5-2.5s2.5,1.1,2.5,2.5c0,0,0,0,0,0
			C192.7,69.7,191.6,70.8,190.2,70.8C190.2,70.8,190.2,70.8,190.2,70.8z M188.1,68.3c0,1.2,0.9,2.1,2.1,2.1s2.1-0.9,2.1-2.1
			s-0.9-2.1-2.1-2.1c0,0,0,0,0,0C189.1,66.2,188.1,67.1,188.1,68.3L188.1,68.3z"/>
		<path class="st2" d="M188.1,68.2c0-1.2,0.9-2.1,2.1-2.1s2.1,0.9,2.1,2.1c0,1.2-0.9,2.1-2.1,2.1c0,0,0,0,0,0
			C189,70.3,188.1,69.4,188.1,68.2z M190.1,69.6c0.4,0,0.9-0.1,1.2-0.5c0.1-0.1,0.1-0.2,0.2-0.3c0.1-0.1,0-0.2-0.1-0.3c0,0,0,0,0,0
			c-0.1,0-0.2,0-0.3,0.1l0,0.1c-0.2,0.3-0.6,0.4-0.9,0.4c-0.3,0-0.6-0.2-0.7-0.5c0-0.1-0.2-0.1-0.2-0.1c0,0,0,0,0,0
			c-0.1,0-0.2,0.1-0.1,0.2c0.1,0.1,0.1,0.3,0.2,0.4C189.5,69.5,189.8,69.7,190.1,69.6L190.1,69.6z M188.8,67.7
			c0,0.2,0.2,0.4,0.4,0.4c0,0,0,0,0,0c0.2,0,0.4-0.2,0.4-0.4c0,0,0,0,0,0c0-0.2-0.2-0.4-0.4-0.4C189,67.3,188.8,67.5,188.8,67.7
			C188.8,67.7,188.8,67.7,188.8,67.7z M190.9,67.7c0,0.2,0.2,0.4,0.4,0.4c0.2,0,0.4-0.2,0.4-0.4c0-0.2-0.2-0.4-0.4-0.4
			C191.1,67.4,190.9,67.5,190.9,67.7z"/>
		<path class="st14" d="M190.1,69.7c-0.3,0-0.6-0.1-0.9-0.4c-0.1-0.1-0.2-0.2-0.2-0.4c0-0.1,0-0.2,0.1-0.2c0.1,0,0.2,0,0.2,0.1
			c0,0,0,0,0,0c0.1,0.3,0.4,0.5,0.7,0.5c0.4,0,0.7-0.1,0.9-0.4l0-0.1c0-0.1,0.1-0.2,0.3-0.1c0.1,0,0.2,0.2,0.1,0.3c0,0,0,0,0,0
			c0,0.1-0.1,0.2-0.2,0.3C191,69.5,190.6,69.7,190.1,69.7z"/>
		<path class="st14" d="M188.8,67.7c0-0.2,0.2-0.4,0.4-0.4l0,0c0.2,0,0.4,0.2,0.4,0.4c0,0.2-0.2,0.4-0.4,0.4c0,0,0,0,0,0
			C189,68.1,188.8,67.9,188.8,67.7C188.8,67.7,188.8,67.7,188.8,67.7z"/>
		<path class="st14" d="M190.9,67.7c0-0.2,0.2-0.4,0.4-0.4c0.2,0,0.4,0.2,0.4,0.4s-0.2,0.4-0.4,0.4c0,0,0,0,0,0
			C191.1,68.1,191,67.9,190.9,67.7z"/>
	</g>
</g>
</svg>
