<svg id="Layer_1" data-name="Layer 1" xmlns="http://www.w3.org/2000/svg" viewBox="0 0 540.87 639.37">
  <defs>
    <style>
      .cls-1 {
        fill: #0a0809;
      }

      .cls-2 {
        fill: #cc1a93;
      }

      .cls-3 {
        fill: #d32099;
      }

      .cls-4 {
        fill: #f2bc12;
      }

      .cls-5 {
        fill: #d2137e;
      }

      .cls-6 {
        fill: #4fc8ef;
      }

      .cls-7 {
        fill: #202020;
      }

      .cls-8 {
        fill: #2e2e2e;
      }

      .cls-9 {
        fill: #00b6fc;
      }

      .cls-10 {
        fill: #fefefe;
      }

      .cls-11 {
        fill: #f8b61a;
      }

      .cls-12 {
        fill: #f91394;
      }

      .cls-13 {
        fill: #0196d1;
      }

      .cls-14 {
        fill: #fe19b0;
      }

      .cls-15 {
        fill: #fe18a5;
      }

      .cls-16 {
        fill: #db1080;
      }

      .cls-17 {
        fill: #fe159b;
      }

      .cls-18 {
        fill: #ededed;
      }

      .cls-19 {
        fill: #f81494;
      }

      .cls-20 {
        fill: #46cdfd;
      }

      .cls-21 {
        fill: #fe18cb;
      }

      .cls-22 {
        fill: #01aff2;
      }

      .cls-23 {
        fill: #ececec;
      }

      .cls-24 {
        fill: #f919b3;
      }

      .cls-25 {
        fill: #fbfbfb;
      }

      .cls-26 {
        fill: #ebebeb;
      }

      .cls-27 {
        fill: #f5f5f5;
      }

      .cls-28 {
        fill: #fec21b;
      }

      .cls-29 {
        fill: #01a0df;
      }

      .cls-30 {
        fill: #eb118a;
      }

      .cls-31 {
        fill: #019edc;
      }

      .cls-32 {
        fill: #fafafa;
      }

      .cls-33 {
        fill: #008ec1;
      }

      .cls-34 {
        fill: #030303;
      }

      .cls-35 {
        fill: #020202;
      }

      .cls-36 {
        fill: #c21374;
      }

      .cls-37 {
        fill: #e6ac1a;
      }

      .cls-38 {
        fill: #f31cac;
      }

      .cls-39 {
        fill: #2b2628;
      }

      .cls-40 {
        fill: #43c6eb;
      }
    </style>
  </defs>
  <title>unicorn</title>
  <g>
    <path d="M490.29,130l20.64,23.12c.48,1.93,1.24,3.59,3.55,3.82l28.78,29.58a15.25,15.25,0,0,0,4,4.5c3.27,3.54,5.94,8.52,10,10.21s8.91-2.22,13.6-3c22-3.85,42.57.47,62.29,10.28,7.26,3.6,7,3.25,13.36-1.92,8.09-6.62,15.63-13.5,18.57-24,.76-2.71,2.31-1,3.47-.54,12,4.8,18.35,14.23,21.49,26.28a8.53,8.53,0,0,0,.34,2c1.66,3.05-1.28,7.68,2.25,9.51,2.75,1.42,6.5.89,9.81,1.24,33.67,3.61,64.43,14.67,92.09,34.56,21.29,15.3,36.21,35.47,47.34,58.74,19.62,41,23.86,83.23,8.85,126.72-2.72,7.88-5.37,15.74-4.69,24.26.51,6.37,2.55,12,7.67,16.17,4.93,4,12.34,3.94,18.14,0s8.12-10.18,6.22-16a3.89,3.89,0,0,0-.12-.49c-1.35-3.31-3.55-5.6-7.31-5.88-2.82-.21-5.28.43-6.7,3.22-1.77,3.49.17,6,2.22,8.51A.87.87,0,0,1,866,472c-14.48-4-18.91-23.47-8.05-35.41s30.71-12.21,43.3.27c15.42,15.29,17.15,34,11,53.63-5.69,18.18-18.14,30.59-36.11,37.27-.72.27-1.69,0-2.27,1.49,6.06,3.66,12.34,7.18,17.9,11.79,20.27,16.74,31,38.49,34.3,64.27,8.46,66.6-41.17,129.53-107.59,142.36-61.25,11.83-123.89-22.88-147.58-80.78-.68-1.65-1.43-3.27-2.34-5.36a84.77,84.77,0,0,1-26.26,19.16c-49.19,22.71-109-6.63-122.19-59.92-7.3-29.43-.09-55.91,16.15-80.56C550,519.36,568.51,503.16,588,488c10.12-7.86,20.28-15.64,30.45-23.43,1.33-1,2.5-2,3-3.79,5.77-22.23,9.36-44.6,4.59-67.56-.48-2.34-.76-3.81-3.64-2-17.1,10.79-36.18,13.49-55.9,13.48-2.07,0-3.69-.44-4.85,2.61-11.46,30.37-42.24,43.63-73,31.23-20-8-33-22.46-37.06-44.08-1.63-8.61.07-16.88,3.28-24.88,1-2.56.76-3.41-2.29-3.36-35.54.5-63.27-28.25-66.24-62-2.87-32.59,21-66.73,55.56-74.07,18.25-3.88,35.2-1.31,48.65,13,15.16,16.17,13.44,39.77-3.58,51.45a25.16,25.16,0,0,1-18.38,4.53c4.2-4.59,8.61-8.11,11.65-12.85,2.93-4.55,5-9.28,4.83-14.89-.26-10.38-8.16-16.4-18.25-13.82a20.1,20.1,0,0,0-12,8.36c-9.62,14.4-13.92,30.09-9.77,47.32a30.3,30.3,0,0,0,13.43,18.56c11.11,7.28,25.27,4.22,34.4-7.44,7.11-9.09,9.61-19.87,11.17-31,1.42-10.21,1.79-20.53,3.73-30.69a77.28,77.28,0,0,1,17.92-37.24c2.84-3.22,2.41-5.26.6-8.5C521,207.41,516,197.67,510.81,188c.31-2.6.55-5.17-3.07-5.64l-17.1-32c-.77-1.49-1.62-2.94-2.52-4.35-1.08-4.55-4.39-8.23-5.06-12.94,1.1-1.28,2.86-1.29,4.18-2.16C488.22,130.48,489,129.24,490.29,130Z" transform="translate(-386.13 -110.62)"/>
    <path class="cls-1" d="M490.29,130l-2.23,2.11c-1.77-2-3.68-3.24-6.14-1a72.33,72.33,0,0,1-6-14.81c-.48-1.26-.68-2.36,1.26-2.29A150.59,150.59,0,0,1,490.29,130Z" transform="translate(-386.13 -110.62)"/>
    <path class="cls-2" d="M481.92,131.09c-.22-2.2.63-3.53,3-3.32,2.59.22,3.76,1.66,3.17,4.3a9,9,0,0,1-5,1Z" transform="translate(-386.13 -110.62)"/>
    <path class="cls-3" d="M507.74,182.36c1.39-1.07,2.84-2,4.15,0s1,4.08-1.08,5.63C508.47,186.84,507.78,184.78,507.74,182.36Z" transform="translate(-386.13 -110.62)"/>
    <path class="cls-4" d="M547.22,191c-4,.86-4.3-1.53-4-4.5,1.1-.44,2-2,3.42-.49A4.09,4.09,0,0,1,547.22,191Z" transform="translate(-386.13 -110.62)"/>
    <path class="cls-5" d="M514.48,156.9c-1.25.81-2.64,1.91-4,.62-1.5-1.45-.45-3,.45-4.44C514.07,152.54,516,153.09,514.48,156.9Z" transform="translate(-386.13 -110.62)"/>
    <path class="cls-6" d="M488.12,146c2.66.4,3.51,1.85,2.52,4.36-1.55-.31-3.5.19-4.27-1.74C485.76,147.11,487.59,146.92,488.12,146Z" transform="translate(-386.13 -110.62)"/>
    <path class="cls-7" d="M477.2,114c-1,.45-1.07,1.4-1.26,2.29a11.9,11.9,0,0,1-1.84-5.66A7.8,7.8,0,0,1,477.2,114Z" transform="translate(-386.13 -110.62)"/>
    <path class="cls-8" d="M866,472l.14-1.24c1,.31,2.51,1,2.16,1.79C867.82,473.56,866.66,472.7,866,472Z" transform="translate(-386.13 -110.62)"/>
    <path class="cls-9" d="M733,436.05c11.36-18.19,23.42-36,31.52-56,9.09-22.49,12.93-45.53,6-69.3-8.84-30.5-28.05-51.63-58.07-62.63-6.88-2.51-13.78-5-21-6.38-3-.6-3.65-1.56-3-4.95,1-5.67,3.18-6.87,8.85-6,21,3.38,41.28,8.93,60.31,18.61,34.63,17.6,54,46.54,61.27,83.95,6.46,33.07,3.14,64.84-13.68,94.79-7.52,13.39-13.44,27.59-13,43.5.06,2.36-1.61,3.57-2.86,5-15.66,18.44-30.65,37.36-41.13,59.37-12.09,25.4-17.72,51.72-9.2,79.41,8,25.94,24,44.26,51.28,50.88,38.86,9.44,77.71-19.15,80.47-59.07,1.57-22.82-10.86-42.19-30.61-47.69-14-3.91-28.62,1.81-35.72,14.24-5.16,9-5.32,18.23.81,26.81,6.23,8.73,14.69,12.75,25.59,10.17.11-1.81-1.35-1.73-2.33-2.15-6.83-2.87-10-8.81-8.53-16.06,1.21-6,6.61-9.85,13.82-9.8,11.86.08,20.14,10.36,18.8,23.36-1.49,14.46-12.92,26.08-28.36,28.82-23.93,4.25-44.58-11.88-48.29-37.72-3.81-26.61,13.29-52.89,41.28-62.1,26.6-8.75,49.94-1.21,70.32,16.62,14.8,12.94,23.55,29.51,26.54,49,0,16.79-6.91,31.44-15,45.44-15.24,26.41-35.72,47.6-63.85,60.52q-40.4,18.57-81.33,1.06c-25-10.67-43.63-28.4-56.35-52.3a118.62,118.62,0,0,1-13.84-53.19c-.77-28.32,5.11-55.63,13.49-82.44,8.83-28.18,19.86-55.49,34.61-81.17C732.31,437.87,732.36,436.84,733,436.05Z" transform="translate(-386.13 -110.62)"/>
    <path class="cls-10" d="M633,384c12.22-11.47,19.24-25.21,17.75-42.32-.22-2.54,1.26-6.67-3.42-7.52-2.54.92-3.85,3-5.13,5.21-7.69,13.13-16.47,25.43-27.88,35.63-15.68,14-33.4,21.73-54.87,16.89-5.63-1.27-9.59.77-13.17,4.87-10.1,11.56-22.48,19.68-38,20.84-15.68,1.18-30.18-2.8-40.95-15.26-5.55-6.4-7.16-14.52-7.59-22.79-.2-3.93.12-7.88-.82-11.74.38-2.26,2.24-1.52,3.57-1.73,43.85-6.82,78.57-27.73,101.73-66.23,7.39-12.28,14.77-24.49,24.24-35.34,11.24-12.87,25-20.52,42.15-22.28,4.1-.42,3,2.75,4,4.37,1.66,2.77,1.46,2.89,3.31.59a76.27,76.27,0,0,0,.76-14.79c-.45-9,4.15-15.39,10.49-20.91,1.5-1.31,3.15-2.43,3.88-4.4,6.13-4.71,11.44-10.13,15.07-17,1.35-.44,2.23.37,3,1.24,9.34,10.4,14,22,9.58,36.11A80.55,80.55,0,0,1,674.05,243c-.82,1.44-1.71,2.84-2.54,4.28-3.87,6.79-3.79,8.56.59,14,.19.27.42.81.55.78,5.52-1.07,4.18,3.25,4.6,6,4.06,26.3,7.35,52.66,8.65,79.29,1.59,32.54-8.61,60.45-30.92,84-5.12,5.42-10.08,11-16,15.67-3-.88-1.75-3.1-1.3-4.78a155.25,155.25,0,0,0,3.23-17.55c1.7-11.79-.68-22.68-5.72-33.23C634.1,389.12,632.24,387,633,384Z" transform="translate(-386.13 -110.62)"/>
    <path class="cls-11" d="M768.94,344c-.7,13.53-5.12,26.05-10.59,38.24-9.73,21.7-23.56,40.93-36.71,60.57-20.7,30.93-39.61,62.8-51.2,98.47-2.05,6.33-3.78,12.75-5.8,19.61-2-1.59-3.77-3.17-5.69-4.59-19.3-14.25-40-17.72-61.9-6.86-18.79,9.32-27.72,31.2-21.18,49.76,5.82,16.51,24.51,26,40.76,20.73,11-3.58,18.42-14.06,17.37-24.58-.68-6.85-5.16-12.08-11.52-13.44-6.79-1.45-12.5.87-15.42,6.3-.3.56-.68,1.18-.07,1.89.18.1.57.43.71.35,3.53-2.15,6.7-1.7,9.29,1.49a5.45,5.45,0,0,1,0,7.35c-2.67,3.27-6.19,4.44-10.28,3-6-2.05-9.31-9.9-7.35-17.22,2.85-10.63,14.53-17.36,25.49-14.68,14.22,3.47,23.16,18,20.69,33.71-3.18,20.26-20.46,35.65-40.57,36.12-21.85.51-39.53-13.61-44-35.23-3-14.75-.69-28.78,5.77-42.26,7.41-15.44,18.52-28,30.88-39.53,15.51-14.47,32.78-26.72,49.59-39.57,18.29-14,35.94-28.65,50.19-47,35.74-46.08,40.33-112.74,11-160.63-5.81-9.48-13.37-17.41-21.21-25.13-1.71-1.69-3.26-3.07-1.67-5.91s3.56-1,5.13-.63a140.27,140.27,0,0,1,30,10.7c27.83,13.83,42.87,36.91,48.11,67a19.72,19.72,0,0,1,.07,3C769.05,331.38,768.67,337.7,768.94,344Z" transform="translate(-386.13 -110.62)"/>
    <path class="cls-12" d="M572,512c9.37-9.06,20-16.54,30.45-24.23,19.58-14.42,39.55-28.38,56.3-46.23,15.59-16.62,28.26-35,32.81-57.88,3.78-19,2.22-38.15-.09-57.22-2.64-21.84-7.26-43.32-12.14-64.74-.18-.81-.34-1.63-.46-2.46-.52-3.44,1.85-6,3.87-7.64s3.39,1.74,4.72,3.11c36.9,38.23,42.52,83.5,28.84,132.58-7.44,26.69-23.26,48.39-43.57,67-17.87,16.34-37.87,29.95-56.9,44.8-15.4,12-30.28,24.61-42.29,40.16-13,16.91-21.69,35.45-20.49,57.49,1.49,27.5,20.2,47.22,47.35,49.83,31.13,3,58.37-30.15,48.58-59.12-4.93-14.59-19.13-23.79-33.16-21.48-13.15,2.17-22.77,15.59-19.85,27.68a17.82,17.82,0,0,0,3.5,7.11c3.54,4.35,8.43,6,13.31,4.49s7.8-4.61,8.25-9.58c.54-5.91-4-7.68-9.13-9.32,5.2-2.22,9.53-1.68,13.24,1.41s4.3,7.3,3.16,11.85c-2.66,10.6-13.37,16.55-25.17,14-15-3.27-23.69-16.94-20.66-32.54,3.28-16.85,17.35-28.95,36-31,15.83-1.72,30,2.58,42.77,11.82,1.65,1.19,3.07,2.2,2.5,4.81-5.22,23.87-5.31,47.89-1.56,72,.73,2.3-.44,3.88-2.12,5.13-13.43,10-27.48,18.82-44.35,22-20.44,3.81-39.11-.18-55.53-13-14.91-11.65-22.31-27.34-23.5-46.12-1.3-20.61,4.91-39.47,13.48-57.73A213.21,213.21,0,0,1,572,512Z" transform="translate(-386.13 -110.62)"/>
    <path class="cls-13" d="M733,436.05c.24,2.7-1.41,4.75-2.53,6.93-12.6,24.61-23.5,49.93-31.7,76.37-6.29,20.3-10.94,40.89-13,62.15-2,20.7-.56,40.87,7.08,60.2,15.51,39.25,43.86,64.12,85.53,71.93,28.54,5.35,54.44-3.44,77.33-20.32,25.68-18.93,43.93-43.71,54-74.17,2-5.94,2.93-12.2,4.36-18.31,3.5,14.36,2.59,28.74-.29,43-10,49.7-55.35,91.12-105.85,96.91-1.65.19-3.32.11-5,.15-6.32,0-12.64-.33-19,0-20.76-1.15-39.73-7.92-57.2-18.86-35-21.92-53.41-54.28-58.75-94.65-.64-4.78-1.44-9.57-1-14.43a53.79,53.79,0,0,0,0-14.94c.2-20.14,4.56-39.53,10.93-58.51C690.6,502,710.79,468.47,733,436.05Z" transform="translate(-386.13 -110.62)"/>
    <path class="cls-11" d="M744,579c.66-14.19,5.09-27.4,10.69-40.27,9.43-21.68,23-40.81,36.87-59.79.16-.22.56-.28,1.13-.55,3.32,18.81,12.65,33.68,29.39,44.22-7.49,2.28-14.31,4.72-20.54,8.49-19.45,11.75-32,28.22-35.11,51.21-3.7,27.09,14.7,55,39.82,60.16,22.37,4.58,45.79-8.65,51.09-29,2.1-8,1.51-15.89-2.55-23.24a22.23,22.23,0,0,0-19.45-12.06c-7.26-.34-13.62,2.1-17.3,8.77-4,7.27-2.22,14.14,2.64,20.53-2,1.26-3.51-.24-5-1C804,600,800.6,585.93,808,574.77c8-12,23.69-15.71,37.2-8.43,12.11,6.52,18.36,17.16,19.73,30.56,2.54,24.75-11.49,48.66-34.29,59.08-22.63,10.34-50.16,5.11-67.08-13.07-12-12.9-18.08-28.48-19.5-45.95C744.15,591,744.25,585,744,579Z" transform="translate(-386.13 -110.62)"/>
    <path class="cls-14" d="M792.81,268.12l-10-9.61c-.79-1.49-2.3-2.28-3.45-3.42-.75-.75-2.5-1.15-1.6-2.53,1.06-1.62,2.25.23,3.4.4,21.46,12.93,37.78,30.82,50.26,52.35,24.37,42.05,27.44,86.09,12,131.77-3.81,11.26-7.51,22.48-4.38,34.6,4.95,19.19,24.91,26.05,38.49,13.17,5.49-5.2,7.72-11.6,5.92-19.05-1.62-6.69-6.55-10.78-12.61-10.86-5.86-.09-8.82,2.53-11.13,9.83-6.92-7.73-6.26-18.76,1.57-26.14,8.39-7.92,20.57-8.71,30.77-2,19.95,28.74,8,74.51-31.93,81.1-20,3.3-44.33-12.72-44.7-36.67-.21-13.58,3.26-26.39,6.19-39.36,4.05-17.87,8.26-35.71,10.43-53.94,3.3-27.69,2.39-54.93-9.5-80.8C815.62,291.8,806.05,278.52,792.81,268.12Z" transform="translate(-386.13 -110.62)"/>
    <path class="cls-15" d="M436,250.86c13-13,40.31-15,53.33-2.9,7.61,7,10.08,16.79,7.7,27.11-2.34,10.09-8.57,17.1-18.29,20.87a5.37,5.37,0,0,1-2,.24,6.8,6.8,0,0,1-1.56-.45c6.27-6.31,12-12.73,13.06-21.89,1.7-14.7-9.71-24.36-23.95-20.24a23.65,23.65,0,0,0-12.36,8.06c-11.75,15.06-16.79,32.17-13.26,51,3.16,16.88,17.77,34.81,44.87,28,11.68-2.93,21.42-8.75,29-18.23,8.9-11.08,14.21-24,19.44-37,5.51-13.63,11.41-27.07,22.35-37.42,21-19.91,45.62-26.2,73.75-19.25,3.86,1,4.89,2.71,3.85,6.22-3.71.29-7-1.55-10.73-1.76-19-1.06-33.34,7.65-45.18,21.41a185.94,185.94,0,0,0-16.45,22.61c-10.45,16.68-21.64,32.81-36.49,46-12.56,11.18-26.79,19.14-43.21,22.94C450,353.22,427,330.33,423.61,305c-1.88-14.11.1-27.47,4.76-40.71C430.12,259.27,433.16,255.16,436,250.86Z" transform="translate(-386.13 -110.62)"/>
    <path class="cls-16" d="M572,512c-.23,4.1-3.39,6.69-5.35,9.83-11.12,17.82-20.9,36.27-25.94,56.82-4.12,16.75-4.71,33.55,2.34,49.71,8.33,19.1,23.23,30.79,43.3,35.54,25.37,6,47.31-2.56,67.41-17.36,3-2.24,7.6-3.17,8.41-7.9,1.58,5.89,3.12,11.79,4.77,17.65a4.14,4.14,0,0,1-1.32,4.44c-13.72,13.78-30.12,21.82-49.64,23.2q-8-.23-16,0c-22.6-1.75-41.2-11.83-55.68-28.74-20.24-23.61-25.81-51.07-16.89-80.78C535.17,548.74,551.71,528.9,572,512Z" transform="translate(-386.13 -110.62)"/>
    <path class="cls-17" d="M792.81,268.12c8.24,3.09,12.89,10.13,18,16.61,13.65,17.46,20.79,37.51,23.3,59.41,1.73,15.1.86,30.08-.89,45.11-2.87,24.74-9.51,48.69-14.78,72.93a74.14,74.14,0,0,0-1.28,22.8c1.4,14.87,16.48,28.3,31.52,31.23,21.54,4.2,44.86-14.29,49.67-34.41,3.59-15,1.41-28.9-5.44-42.37a5,5,0,0,1-.76-2.81c11.34,6.6,15.68,17.35,16.67,29.59,2,25-14.33,50.14-37.78,59a9.81,9.81,0,0,1-7.19.21c-11.32-3.92-22.92-5.68-34.86-3.64-2.41.41-4.15-.65-6-1.84-22.53-14.64-31.43-43.9-21.36-70.14,4.9-12.76,12.77-24.13,17.58-36.91C839,360.25,831.23,312.36,794,269.7,793.56,269.21,793.2,268.65,792.81,268.12Z" transform="translate(-386.13 -110.62)"/>
    <path class="cls-18" d="M459,367.85c2.73.72,2.16,2.94,2.06,4.81a53,53,0,0,0,2.67,20.58c3.91,11.25,12.82,17.06,23.38,20.57,24.2,8.05,44.67-1.93,59-18.76,3.32-3.91,7.35-6,12.72-4.64,21,5.21,38.49-2,54-15.66C624.82,364.11,634,351.11,642,337.23c1.07-1.85,1.76-5.24,5.34-3-.73,2.32.08,4.9-1.18,7.13a1.76,1.76,0,0,1-.61-2c.15.74-.45,2.23.37,3.68-2.89,18.06-12.55,32-27,42.59-15.69,11.53-34.08,15.09-53,16.46A3.73,3.73,0,0,1,564,402c-3-1.66-2.89-1.66-4.6,1.57-9.87,18.68-24.91,29.77-46.34,31.4a18.94,18.94,0,0,0-9,0C473.88,433.83,443.82,400.62,459,367.85Z" transform="translate(-386.13 -110.62)"/>
    <path class="cls-19" d="M436,250.86c-2.23,6.23-6.06,11.73-8,18.14-5.67,19.32-6.73,38.54,4.32,56.2s29.47,25,51,18.91c26.26-7.47,44.84-24.88,60.67-46.05,9.25-12.37,16.63-26,26.05-38.26,10.19-13.27,22.11-24.18,39.15-27.15,7.54-1.32,15.56-2.22,22.72,2.39,1,3.41-.17,4.92-3.78,5-18.58.22-32.92,9.12-45.25,22.19-10,10.6-17.72,22.81-25.55,35-18.52,28.85-44.45,48-77.79,55.95-31.65,7.54-63.41-16.89-65.43-49.31C412.85,282.67,420.72,265.23,436,250.86Z" transform="translate(-386.13 -110.62)"/>
    <path class="cls-20" d="M508.85,306c2.82-14.39,2.7-29.18,5.6-43.53,8.93-44.2,52.46-70.46,97.4-59a147.58,147.58,0,0,1,24.75,9.14c2.61,1.18,2.61,2.13,1.19,4.33a75.75,75.75,0,0,0-4,8c-2.38,1-4.61,0-6.78-.72a99.88,99.88,0,0,0-30.29-5.64c-28.34-.71-48.32,8.87-60.65,36.94-7.15,16.29-14.37,32.56-23.29,48C511,306.59,511,306.59,508.85,306Z" transform="translate(-386.13 -110.62)"/>
    <path class="cls-21" d="M476.25,238.21c-6.71-.88-12.85-2.28-19.23-1.45a44.53,44.53,0,0,0-19.9,7.44c-23.28,16-34.83,48.65-26.69,75.7,6.16,20.49,20.83,31.78,40.91,37,1.57.41,3.15.77,5.37,1.31-22.6,4.19-48.13-11.27-59-35.13-12-26.45-3.7-57.43,20.47-76.39C436,232.68,463.77,228.43,476.25,238.21Z" transform="translate(-386.13 -110.62)"/>
    <path class="cls-22" d="M508.85,306c3.65-2.47,4.72-6.72,6.64-10.25,7.47-13.69,13.58-28.06,20-42.29,9.24-20.56,24.6-33,47.68-35.64,17.65-2,34.15,1.88,50.62,7.09-.28,4.08-2.74,2.15-4.56,1.58-16.52-5.12-33.05-5.32-49.46.28-21.39,7.3-36.75,21.58-46.79,41.6-5.79,11.58-11,23.44-16.64,35.1-3,6.28-6.5,12.34-11.27,17.53-1,.19-1.53-.06-1.15-1.2Q506.38,312.94,508.85,306Z" transform="translate(-386.13 -110.62)"/>
    <path class="cls-18" d="M633,384c6,10.8,10.64,22.09,9.9,34.71-.47,8-1.3,16.05-3.86,23.78-.46,1.4-1.95,3,0,4.48a31.94,31.94,0,0,1-10.31,8c4.67-10.4,4.9-20.16,4.92-29.84,0-10.49-1-21-4.47-30.92C627.38,389.26,628.2,386.11,633,384Z" transform="translate(-386.13 -110.62)"/>
    <path class="cls-23" d="M672.1,261.25c-3.6-.16-5.87-3.34-4.87-7.3a29.6,29.6,0,0,1,3.87-8.59c4.83-7.63,8.67-15.79,9.8-24.8,1.55-12.44-4.41-22-12.79-30.47.8-3.43,2.4-1,3.31-.27,8.66,6.58,12.24,15.64,12.51,26.25a23.93,23.93,0,0,0,0,10A69.07,69.07,0,0,1,672.1,261.25Z" transform="translate(-386.13 -110.62)"/>
    <path class="cls-24" d="M781.2,253l-3.06-.15c1.54,2.24,4.32,3,4.71,5.7-26.59-18.91-56.63-28.14-88.73-31.59-1.19-.13-3,.47-3-1.57s1.76-1.55,3-1.41C725.06,227.68,754.75,235.47,781.2,253Z" transform="translate(-386.13 -110.62)"/>
    <path class="cls-25" d="M545.7,196.94a116,116,0,0,1-21.48,4.61c-1.69.24-2.41-.58-3-1.89-1.22-2.7-2.48-5.38-3.89-8.44,6-1.36,12.2-.88,18-2.84,2-.67,3.34,2.33,5,3.64S543.48,194.89,545.7,196.94Z" transform="translate(-386.13 -110.62)"/>
    <path class="cls-26" d="M531.25,219c-2.14-3.83-6.21-7.8-5.64-10.93.67-3.64,6.72-1.84,10.26-3.15,3.87-1.44,8-2.2,11.85-3.68,2.4-.92,4.14-.29,5,1.62.93,2.12-1.6,2-2.66,2.59A95.24,95.24,0,0,0,531.25,219Z" transform="translate(-386.13 -110.62)"/>
    <path class="cls-23" d="M515,184c-4-3.31-4.29-8.58-7.44-13,4.43.38,8.18,1.19,11.9.18,1.33-.36,2.16.4,3,1.35,2.83,3.42,5.7,6.79,8.67,10.31A12,12,0,0,1,524,184,19,19,0,0,0,515,184Z" transform="translate(-386.13 -110.62)"/>
    <path class="cls-26" d="M653,207.13c1.26,2.11-.51,3.12-1.73,4-8.3,6-12.1,14-11.39,24.26.27,4,1.2,8.33-2,11.84-4.22-8-3-16,.59-23.68A39.23,39.23,0,0,1,653,207.13Z" transform="translate(-386.13 -110.62)"/>
    <path class="cls-27" d="M495.14,143.54c7.05,6.93,12.61,15,19.93,21.71-7.92,1.65-9.47.91-12.49-5.65C500.11,154.24,497.62,148.9,495.14,143.54Z" transform="translate(-386.13 -110.62)"/>
    <path class="cls-28" d="M768.94,344a39.9,39.9,0,0,1,0-19A50.43,50.43,0,0,1,768.94,344Z" transform="translate(-386.13 -110.62)"/>
    <path class="cls-29" d="M784,740.89a40.24,40.24,0,0,1,19,0A58.28,58.28,0,0,1,784,740.89Z" transform="translate(-386.13 -110.62)"/>
    <path class="cls-28" d="M744,579a35.38,35.38,0,0,1,.05,18A51.35,51.35,0,0,1,744,579Z" transform="translate(-386.13 -110.62)"/>
    <path class="cls-30" d="M600,683.92a28.06,28.06,0,0,1,16,0A43.25,43.25,0,0,1,600,683.92Z" transform="translate(-386.13 -110.62)"/>
    <path class="cls-31" d="M667.09,598a25.36,25.36,0,0,1,0,14.94A75.34,75.34,0,0,1,667.09,598Z" transform="translate(-386.13 -110.62)"/>
    <path class="cls-32" d="M683.9,226a12.16,12.16,0,0,1,0-10A30.06,30.06,0,0,1,683.9,226Z" transform="translate(-386.13 -110.62)"/>
    <path class="cls-32" d="M504,435a9.58,9.58,0,0,1,9,0A25.56,25.56,0,0,1,504,435Z" transform="translate(-386.13 -110.62)"/>
    <path class="cls-32" d="M515,184a9.56,9.56,0,0,1,9-.05A25,25,0,0,1,515,184Z" transform="translate(-386.13 -110.62)"/>
    <path class="cls-33" d="M503.89,319.84,505,321a5.16,5.16,0,0,1-3.41,3.16A8.19,8.19,0,0,1,503.89,319.84Z" transform="translate(-386.13 -110.62)"/>
    <path class="cls-25" d="M645.92,343c-1.39-1.57-1.08-3.27-.29-5.69.23,1.78.38,2.89.53,4Z" transform="translate(-386.13 -110.62)"/>
    <path class="cls-34" d="M590,310.14c10.25-3.24,19.38-8.22,26.46-16.58,1.21-1.43,2.32-4.19,4.28-3.54,2.44.8,1.06,3.75,1.43,5.75a17.81,17.81,0,0,1-1,4.56c-.63,1.34-1.25,2.69-2,4.38,4.42,2.37,9.54,2.06,14.68,3.59-5.15,3.1-10.29,3.81-15,1.33-4.49-2.39-6.66,1.23-9.68,2.52-1.53.66.13,1.94.5,2.87,1.2,3.05,2.63,6,2.31,9.76-4.57-2.61-5.84-7.39-8.68-10.93-1.09-1-.12-3-1.9-3.65-1.79,1.42.16,2.94-.14,4.37-3.6.66-6.1,1.59-5.73,6.5.34,4.63-2,8.88-6.83,12.62l2.77-15.52c-.57-2.27-.19-4.78-1.75-6.8A1.16,1.16,0,0,1,590,310.14Z" transform="translate(-386.13 -110.62)"/>
    <path class="cls-35" d="M668.7,237.71a29.07,29.07,0,0,1-4.2,1.22,8.92,8.92,0,0,0-7.27,5.07,15.94,15.94,0,0,1-11.44,8.1c-.92.18-2.1.59-2.59-.65s.73-1.65,1.58-2c8.21-3.51,10.53-10,9.35-18.31-.63-4.44-1.72-8.83-1.24-13.39.68-6.37,5.4-12.1,10.42-12.44a3.65,3.65,0,0,1,2.3.5c.56.43.18,1.25-.39,1.69-5.7,4.44-5.15,10.76-5.12,16.93,0,1.16,0,2.33.08,3.49.09,3.71-1,8.24,5.48,7.25C666.92,235,668,236.23,668.7,237.71Z" transform="translate(-386.13 -110.62)"/>
    <path class="cls-34" d="M485.84,375.93a8,8,0,0,1,5.56,1.78c1.07.9,2.06,2.73.67,3.31-3.29,1.37-3.91,4.53-5.76,6.86-2.14,2.69-5.19,3.11-7.92.78s-3.8-5.58-1.29-8.8A10,10,0,0,1,485.84,375.93Z" transform="translate(-386.13 -110.62)"/>
    <path class="cls-36" d="M590,311.25c5.33,1.24,1,4.64,1.56,6.93-1-2.21-4.25-.41-5.2-2.81C586,312.6,587.26,311.29,590,311.25Z" transform="translate(-386.13 -110.62)"/>
    <path class="cls-37" d="M601.33,314.57a14.21,14.21,0,0,1-1.7-1.68,3.14,3.14,0,0,1,.16-4,1.8,1.8,0,0,1,2.1-.79,3.16,3.16,0,0,1,2.07,3.46,10.74,10.74,0,0,1-.59,2.31Z" transform="translate(-386.13 -110.62)"/>
    <path class="cls-38" d="M621.26,300.33c-1.12-1.82-1.84-3.56,1-4.56,1.94.38,4.43.7,3.85,3.33S623.19,301.11,621.26,300.33Z" transform="translate(-386.13 -110.62)"/>
    <path class="cls-39" d="M590,311.25c-1.87.8-2.79,2.42-3.64,4.12-2.94-4.69.71-4.72,3.7-5.23Z" transform="translate(-386.13 -110.62)"/>
    <path class="cls-40" d="M614.42,304.5a2.55,2.55,0,0,1-3,2c-1.34-.14-2.64-.84-2.54-2.5s1.47-2,2.87-1.9A2.49,2.49,0,0,1,614.42,304.5Z" transform="translate(-386.13 -110.62)"/>
  </g>
</svg>
